<svg xmlns="http://www.w3.org/2000/svg" xmlns:xlink="http://www.w3.org/1999/xlink">

  <symbol id="account">
    <path d="M8 0C9.06087 0 10.0783 0.421427 10.8284 1.17157C11.5786 1.92172 12 2.93913 12 4C12 5.06087 11.5786 6.07828 10.8284 6.82843C10.0783 7.57857 9.06087 8 8 8C6.93913 8 5.92172 7.57857 5.17157 6.82843C4.42143 6.07828 4 5.06087 4 4C4 2.93913 4.42143 1.92172 5.17157 1.17157C5.92172 0.421427 6.93913 0 8 0ZM8 10C12.42 10 16 11.79 16 14V16H0V14C0 11.79 3.58 10 8 10Z"/>
  </symbol>

  <symbol id="like">
    <path d="M8.97342 2.59641C6.21857 -1.65888 0.642853 0.659263 0.642853 5.29469C0.642853 8.77555 8.28685 14.2205 8.97342 14.9285C9.66471 14.2205 16.9286 8.77555 16.9286 5.29469C16.9286 0.694406 11.7334 -1.65888 8.97342 2.59641Z"/>
  </symbol>

  <symbol id="serch">
    <path d="M18 16L12.846 10.846C13.7988 9.39788 14.1805 7.64774 13.917 5.93442C13.6536 4.22111 12.7638 2.66648 11.4199 1.57154C10.076 0.476593 8.37369 -0.0807732 6.64247 0.00734836C4.91125 0.09547 3.27431 0.822811 2.04857 2.04855C0.822834 3.27429 0.0954928 4.91123 0.00737125 6.64245C-0.0807504 8.37366 0.476616 10.076 1.57156 11.4199C2.6665 12.7637 4.22113 13.6535 5.93445 13.917C7.64777 14.1804 9.3979 13.7988 10.846 12.846L16 18L18 16ZM2 6.99998C2 4.24298 4.243 1.99998 7 1.99998C9.757 1.99998 12 4.24298 12 6.99998C12 9.75698 9.757 12 7 12C4.243 12 2 9.75698 2 6.99998Z"/>
  </symbol>

  <symbol id="phone">
    <path d="M17.256 10.253C17.16 9.586 16.645 9.066 15.982 8.911C13.405 8.307 12.759 6.823 12.65 5.177C12.193 5.092 11.38 5 10 5C8.62 5 7.807 5.092 7.35 5.177C7.241 6.823 6.595 8.307 4.018 8.911C3.355 9.067 2.84 9.586 2.744 10.253L2.247 13.695C2.072 14.907 2.962 16 4.2 16H15.8C17.037 16 17.928 14.907 17.753 13.695L17.256 10.253ZM10 13.492C8.605 13.492 7.474 12.372 7.474 10.992C7.474 9.612 8.605 8.492 10 8.492C11.395 8.492 12.526 9.612 12.526 10.992C12.526 12.372 11.394 13.492 10 13.492ZM19.95 4C19.926 2.5 16.108 0.001 10 0C3.891 0.001 0.0729981 2.5 0.0499981 4C0.0269981 5.5 0.0709982 7.452 2.585 7.127C5.526 6.746 5.345 5.719 5.345 4.251C5.345 3.227 7.737 2.98 10 2.98C12.263 2.98 14.654 3.227 14.655 4.251C14.655 5.719 14.474 6.746 17.415 7.127C19.928 7.452 19.973 5.5 19.95 4Z" fill="#333333" />
  </symbol>

  <symbol id="email">
    <path d="M0.574002 1.286L8.074 5.315C8.326 5.45 8.652 5.514 8.98 5.514C9.308 5.514 9.634 5.45 9.886 5.315L17.386 1.286C17.875 1.023 18.337 0 17.44 0H0.521002C-0.375998 0 0.0860016 1.023 0.574002 1.286ZM17.613 3.489L9.886 7.516C9.546 7.694 9.308 7.715 8.98 7.715C8.652 7.715 8.414 7.694 8.074 7.516C7.734 7.338 0.941002 3.777 0.386002 3.488C-0.00399834 3.284 1.61606e-06 3.523 1.61606e-06 3.707V11C1.61606e-06 11.42 0.566002 12 1 12H17C17.434 12 18 11.42 18 11V3.708C18 3.524 18.004 3.285 17.613 3.489Z" fill="#333333" />
  </symbol>

    <symbol id="youtube">
      <path d="M22.8956 2.52385C22.7662 2.04288 22.5127 1.60435 22.1605 1.25215C21.8083 0.899951 21.3697 0.646434 20.8888 0.516973C19.1175 0.0375978 12 0.0375977 12 0.0375977C12 0.0375977 4.8825 0.0375978 3.11125 0.516973C2.63029 0.646434 2.19176 0.899951 1.83956 1.25215C1.48736 1.60435 1.23384 2.04288 1.10438 2.52385C0.773648 4.33025 0.613153 6.1637 0.625005 8.0001C0.613153 9.83649 0.773648 11.6699 1.10438 13.4763C1.23384 13.9573 1.48736 14.3958 1.83956 14.748C2.19176 15.1002 2.63029 15.3538 3.11125 15.4832C4.8825 15.9626 12 15.9626 12 15.9626C12 15.9626 19.1175 15.9626 20.8888 15.4832C21.3697 15.3538 21.8083 15.1002 22.1605 14.748C22.5127 14.3958 22.7662 13.9573 22.8956 13.4763C23.2264 11.6699 23.3869 9.83649 23.375 8.0001C23.3869 6.1637 23.2264 4.33025 22.8956 2.52385ZM9.72501 11.4126V4.5876L15.6319 8.0001L9.72501 11.4126Z" fill="#333333" />
    </symbol>

    <symbol id="vk">
      <path fill-rule="evenodd" clip-rule="evenodd" d="M21.3624 9.75765C21.3624 9.75765 23.3028 11.6741 23.7828 12.5609C23.7922 12.5736 23.7994 12.5878 23.8044 12.6029C24 12.9305 24.048 13.1873 23.952 13.3769C23.79 13.6901 23.2416 13.8473 23.0556 13.8605H19.626C19.3872 13.8605 18.8904 13.7981 18.2856 13.3805C17.8236 13.0577 17.364 12.5261 16.9188 12.0065C16.254 11.2349 15.6792 10.5653 15.0972 10.5653C15.0237 10.5651 14.9507 10.5773 14.8812 10.6013C14.4408 10.7405 13.8816 11.3681 13.8816 13.0397C13.8816 13.5629 13.4688 13.8605 13.1796 13.8605H11.6088C11.0736 13.8605 8.28722 13.6733 5.81642 11.0681C2.78882 7.87845 0.0696241 1.48005 0.0432241 1.42365C-0.125976 1.00965 0.229224 0.784049 0.613224 0.784049H4.07642C4.54082 0.784049 4.69202 1.06485 4.79762 1.31685C4.92002 1.60605 5.37362 2.76285 6.11762 4.06245C7.32242 6.17685 8.06282 7.03725 8.65442 7.03725C8.76557 7.03758 8.87484 7.0086 8.97122 6.95325C9.74402 6.52845 9.60002 3.76845 9.56402 3.19965C9.56402 3.08925 9.56282 1.96725 9.16682 1.42485C8.88362 1.03605 8.40122 0.884848 8.10962 0.829648C8.18762 0.716848 8.35322 0.544048 8.56562 0.442048C9.09482 0.178048 10.0512 0.139648 11.0004 0.139648H11.5272C12.5568 0.154048 12.8232 0.220048 13.1976 0.314848C13.9512 0.494848 13.9656 0.983249 13.8996 2.64645C13.8804 3.12165 13.86 3.65685 13.86 4.28685C13.86 4.42125 13.854 4.57125 13.854 4.72365C13.8312 5.57685 13.8012 6.53805 14.4036 6.93285C14.4818 6.98152 14.572 7.0073 14.664 7.00725C14.8728 7.00725 15.498 7.00725 17.1936 4.09725C17.9376 2.81205 18.5136 1.29645 18.5532 1.18245C18.5868 1.11885 18.6876 0.940048 18.81 0.868048C18.8971 0.821723 18.9946 0.798581 19.0932 0.800849H23.1672C23.6112 0.800849 23.9124 0.868049 23.9712 1.03605C24.0696 1.30845 23.952 2.14005 22.092 4.65525C21.7788 5.07405 21.504 5.43645 21.2628 5.75325C19.5768 7.96605 19.5768 8.07765 21.3624 9.75765Z" fill="#333333" />
    </symbol>

    <symbol id="facebook">
      <path d="M7.51341 19.7467V10.8677H10.5088L10.9541 7.39127H7.51341V5.17694C7.51341 4.17377 7.79291 3.48694 9.23266 3.48694H11.057V0.387523C10.1694 0.292396 9.27713 0.246465 8.38441 0.249939C5.73674 0.249939 3.91891 1.86627 3.91891 4.83352V7.38477H0.942993V10.8612H3.92541V19.7467H7.51341Z" fill="#333333" />
    </symbol>

    <symbol id="telegram">
      <path d="M18.665 0.717064L0.935003 7.55406C-0.274997 8.04006 -0.267997 8.71506 0.713003 9.01606L5.265 10.4361L15.797 3.79106C16.295 3.48806 16.75 3.65106 16.376 3.98306L7.843 11.6841H7.841L7.843 11.6851L7.529 16.3771C7.989 16.3771 8.192 16.1661 8.45 15.9171L10.661 13.7671L15.26 17.1641C16.108 17.6311 16.717 17.3911 16.928 16.3791L19.947 2.15106C20.256 0.912064 19.474 0.351064 18.665 0.717064Z" fill="#333333" />
    </symbol>

    <symbol id="e">
      <path d="M4.70932 1.63C4.70932 1.41333 4.73132 1.28333 5.10265 1.28333H10.0793C10.946 1.28333 11.426 2.02333 11.7727 3.412L12.0527 4.52267H12.8993C13.0527 1.37067 13.186 0 13.186 0C13.186 0 11.0553 0.24 9.79265 0.24H3.42665L0.0173187 0.130667V1.044L1.16732 1.26133C1.97399 1.42133 2.16732 1.592 2.23399 2.332C2.23399 2.332 2.30732 4.512 2.30732 8.092C2.30732 11.682 2.24732 13.832 2.24732 13.832C2.24732 14.4807 1.98732 14.7207 1.18732 14.8807L0.0393187 15.1007V16L3.45932 15.89H9.15932C10.4493 15.89 13.4193 16 13.4193 16C13.4893 15.22 13.9193 11.68 13.9893 11.2907H13.1893L12.3333 13.2307C11.6633 14.7507 10.6827 14.8607 9.59332 14.8607H6.32265C5.23599 14.8607 4.71265 14.434 4.71265 13.494V8.53333C4.71265 8.53333 7.12599 8.53333 7.90598 8.59733C8.51398 8.64 8.88132 8.814 9.07932 9.66267L9.33932 10.7927H10.2793L10.2193 7.94067L10.3473 5.07067H9.41998L9.11998 6.33067C8.93132 7.16 8.79998 7.31067 7.95065 7.39733C6.83998 7.51067 4.74065 7.49067 4.74065 7.49067V1.63333H4.70732L4.70932 1.63Z" fill="#333333" />
    </symbol>

    <symbol id="mark">
      <path d="M11.8337 6.49996C11.8337 5.73392 11.6828 4.97537 11.3896 4.26764C11.0965 3.55991 10.6668 2.91684 10.1251 2.37517C9.58344 1.83349 8.94038 1.40381 8.23265 1.11066C7.52491 0.81751 6.76637 0.666626 6.00033 0.666626C5.23428 0.666626 4.47574 0.81751 3.76801 1.11066C3.06027 1.40381 2.41721 1.83349 1.87554 2.37517C1.33386 2.91684 0.904181 3.55991 0.611028 4.26764C0.317876 4.97537 0.166992 5.73392 0.166992 6.49996C0.166992 7.65579 0.508659 8.73079 1.08783 9.63746H1.08116C3.04783 12.7166 6.00033 17.3333 6.00033 17.3333L10.9195 9.63746H10.9137C11.514 8.7011 11.8333 7.61224 11.8337 6.49996ZM6.00033 8.99996C5.33729 8.99996 4.7014 8.73657 4.23256 8.26773C3.76372 7.79889 3.50033 7.163 3.50033 6.49996C3.50033 5.83692 3.76372 5.20103 4.23256 4.73219C4.7014 4.26335 5.33729 3.99996 6.00033 3.99996C6.66337 3.99996 7.29925 4.26335 7.76809 4.73219C8.23693 5.20103 8.50033 5.83692 8.50033 6.49996C8.50033 7.163 8.23693 7.79889 7.76809 8.26773C7.29925 8.73657 6.66337 8.99996 6.00033 8.99996Z" fill="#333333" />
    </symbol>

    <symbol id="tel">
      <path d="M11.7068 12.425L13.1068 11.025C13.2953 10.8388 13.5339 10.7113 13.7935 10.6581C14.0531 10.6048 14.3226 10.6281 14.5693 10.725L16.2755 11.4063C16.5248 11.5074 16.7385 11.6801 16.8898 11.9026C17.041 12.125 17.1231 12.3873 17.1255 12.6563V15.7813C17.1241 15.9643 17.0856 16.1451 17.0124 16.3128C16.9393 16.4805 16.8329 16.6317 16.6998 16.7573C16.5666 16.8828 16.4095 16.9801 16.2377 17.0433C16.066 17.1065 15.8833 17.1343 15.7005 17.125C3.74426 16.3813 1.33176 6.25628 0.875511 2.38128C0.854331 2.19099 0.873683 1.99837 0.932291 1.81609C0.9909 1.63382 1.08744 1.46602 1.21555 1.32374C1.34367 1.18145 1.50046 1.0679 1.67561 0.990565C1.85076 0.913227 2.0403 0.873851 2.23176 0.875026H5.25051C5.51989 0.875823 5.78287 0.957193 6.00563 1.10867C6.22839 1.26015 6.40074 1.4748 6.50051 1.72503L7.18176 3.43128C7.28192 3.67694 7.30747 3.94668 7.25523 4.20678C7.20299 4.46689 7.07526 4.70584 6.88801 4.89378L5.48801 6.29378C5.48801 6.29378 6.29426 11.75 11.7068 12.425Z" fill="#333333" />
    </symbol>

    <symbol id="email-2">
      <path d="M17.1886 4.03784H2.811C2.67544 4.038 2.54548 4.09194 2.44964 4.18782C2.3538 4.28369 2.29991 4.41368 2.2998 4.54924V5.57804C2.2998 5.62544 2.3512 5.67984 2.3932 5.70184L9.9504 10.0184C9.96976 10.0295 9.99171 10.0352 10.014 10.035C10.0368 10.0351 10.0592 10.029 10.0788 10.0174L17.4076 5.70604C17.4488 5.68304 17.558 5.62224 17.599 5.59424C17.6486 5.56044 17.6998 5.52984 17.6998 5.46924V4.54904C17.6996 4.41351 17.6457 4.28358 17.5499 4.18774C17.4541 4.09191 17.3241 4.038 17.1886 4.03784Z" fill="#333333" />
      <path d="M17.6365 7.12922C17.6169 7.118 17.5946 7.11217 17.5719 7.11231C17.5493 7.11245 17.5271 7.11856 17.5075 7.13002L13.3601 9.57022C13.3436 9.57985 13.3295 9.59308 13.3187 9.60892C13.308 9.62477 13.301 9.64282 13.2982 9.66174C13.2954 9.68067 13.297 9.69997 13.3027 9.71823C13.3083 9.73649 13.3181 9.75324 13.3311 9.76722L17.4791 14.2386C17.491 14.2515 17.5055 14.2618 17.5215 14.2688C17.5376 14.2759 17.555 14.2795 17.5725 14.2794C17.6064 14.2794 17.6389 14.2659 17.6628 14.2419C17.6868 14.218 17.7003 14.1855 17.7003 14.1516V7.24022C17.7004 7.21774 17.6946 7.19563 17.6834 7.17614C17.6722 7.15665 17.656 7.14046 17.6365 7.12922Z" fill="#333333" />
      <path d="M12.1648 10.3897C12.1451 10.3682 12.1186 10.3542 12.0898 10.3499C12.061 10.3456 12.0316 10.3513 12.0066 10.3661L10.3442 11.3443C10.2468 11.4006 10.1364 11.4305 10.0239 11.4313C9.91142 11.432 9.80068 11.4035 9.70255 11.3485L8.23955 10.5127C8.21593 10.4992 8.18865 10.4936 8.16164 10.4967C8.13464 10.4998 8.10932 10.5114 8.08935 10.5299L2.53375 15.6831C2.51919 15.6967 2.508 15.7135 2.5011 15.7322C2.49419 15.7509 2.49174 15.771 2.49396 15.7908C2.49617 15.8106 2.50298 15.8296 2.51385 15.8464C2.52472 15.8631 2.53934 15.877 2.55655 15.8871C2.64295 15.9379 2.72635 15.9621 2.81115 15.9621H17.0418C17.0667 15.9621 17.091 15.9549 17.1118 15.9412C17.1326 15.9275 17.1489 15.908 17.1588 15.8851C17.1687 15.8623 17.1718 15.8371 17.1676 15.8126C17.1634 15.7881 17.1521 15.7654 17.1352 15.7473L12.1648 10.3897Z" fill="#333333" />
      <path d="M6.86661 9.92028C6.88132 9.90668 6.89263 9.88981 6.89962 9.87102C6.90661 9.85224 6.90909 9.83208 6.90685 9.81217C6.90461 9.79225 6.89772 9.77314 6.88673 9.75638C6.87575 9.73962 6.86097 9.72568 6.84361 9.71568L2.49041 7.22928C2.47098 7.21825 2.449 7.21252 2.42666 7.21265C2.40432 7.21278 2.3824 7.21877 2.36311 7.23003C2.34381 7.24129 2.32781 7.25742 2.3167 7.2768C2.30559 7.29618 2.29977 7.31814 2.29981 7.34048V13.8645C2.29967 13.8894 2.30683 13.9138 2.32043 13.9347C2.33402 13.9556 2.35343 13.972 2.37627 13.982C2.39911 13.9919 2.42437 13.995 2.44892 13.9907C2.47347 13.9865 2.49624 13.9751 2.51441 13.9581L6.86661 9.92028Z" fill="#333333" />
    </symbol>

</svg>

